# AST/ASF file generated using VICON BodyLanguage
# -----------------------------------------------
:version 1.10
:name VICON
:units
  mass 1.0
  length 0.45
  angle deg
:documentation
   .ast/.asf automatically generated from VICON data using
   VICON BodyBuilder and BodyLanguage model FoxedUp or BRILLIANT.MOD
:root
   order TX TY TZ RX RY RZ
   axis XYZ
   position 0 0 0  
   orientation 0 0 0 
:bonedata
  begin
     id 1 
     name lhipjoint
     direction 0.567725 -0.736092 0.368589 
     length 2.42353 
     axis 0 0 0  XYZ
  end
  begin
     id 2 
     name lfemur
     direction 0.34202 -0.939693 0  
     length 7.24894  
     axis 0 0 20  XYZ
    dof rx ry rz
    limits (-160.0 20.0)
           (-70.0 70.0)
           (-60.0 70.0)
  end
  begin
     id 3 
     name ltibia
     direction 0.34202 -0.939693 0   
     length 7.6997   
     axis 0 0 20   XYZ
    dof rx
    limits (-10.0 170.0)
  end
  begin
     id 4 
     name lfoot
     direction 0.100767 -0.276854 0.955614   
     length 2.37556   
     axis -90 7.62852e-016 20   XYZ
    dof rx rz
    limits (-45.0 90.0)
           (-70.0 20.0)
  end
  begin
     id 5 
     name ltoes
     direction 1.53592e-011 -4.21894e-011 1   
     length 1.18363   
     axis -90 7.62852e-016 20   XYZ
    dof rx
    limits (-90.0 20.0)
  end
  begin
     id 6 
     name rhipjoint
     direction -0.556459 -0.742938 0.372017   
     length 2.4012  
     axis 0 0 0  XYZ 
  end
  begin
     id 7 
     name rfemur
     direction -0.34202 -0.939693 0   
     length 7.5119   
     axis 0 0 -20   XYZ
    dof rx ry rz
    limits (-160.0 20.0)
           (-70.0 70.0)
           (-70.0 60.0)
  end
  begin
     id 8 
     name rtibia
     direction -0.34202 -0.939693 0   
     length 7.50155   
     axis 0 0 -20   XYZ
    dof rx
    limits (-10.0 170.0)
 end
 begin
     id 9 
     name rfoot
     direction -0.118427 -0.325376 0.938139   
     length 2.32487  
     axis -90 -7.62852e-016 -20   XYZ
    dof rx rz
    limits (-45.0 90.0)
           (-20.0 70.0)
  end
  begin
     id 10 
     name rtoes
     direction -1.53525e-011 -4.21868e-011 1   
     length 1.15233   
     axis -90 -7.62852e-016 -20   XYZ
    dof rx
    limits (-90.0 20.0)
  end
  begin
     id 11 
     name lowerback
     direction 0.0287568 0.999577 -0.00434502   
     length 2.15243   
     axis 0 0 0   XYZ
    dof rx ry rz
    limits (-20.0 45.0)
           (-30.0 30.0)
           (-30.0 30.0)
  end
  begin
     id 12 
     name upperback
     direction 0.0294009 0.99956 0.00404628   
     length 2.15427   
     axis 0 0 0   XYZ
    dof rx ry rz
    limits (-20.0 45.0)
           (-30.0 30.0)
           (-30.0 30.0)
  end
  begin
     id 13 
     name thorax
     direction 0.0151014 0.999868 0.0059419   
     length 2.14898   
     axis 0 0 0   XYZ
    dof rx ry rz
    limits (-20.0 45.0)
           (-30.0 30.0)
           (-30.0 30.0)
  end
  begin
     id 14 
     name lowerneck
     direction -0.0249197 0.989906 0.139515   
     length 1.6861   
     axis 0 0 0   XYZ
    dof rx ry rz
    limits (-20.0 45.0)
           (-30.0 30.0)
           (-30.0 30.0)
  end
  begin
     id 15 
     name upperneck
     direction 0.0438463 0.988795 -0.142693   
     length 1.71276   
     axis 0 0 0   XYZ
    dof rx ry rz
    limits (-20.0 45.0)
           (-30.0 30.0)
           (-30.0 30.0)
  end
  begin
     id 16
     name head
     direction 0.0148499 0.997845 -0.0639186  
     length 1.7209  
     axis 0 0 0   XYZ
    dof rx ry rz
    limits (-20.0 45.0)
           (-30.0 30.0)
           (-30.0 30.0)
  end
  begin
     id 17 
     name lclavicle
     direction 0.940298 0.323464 -0.105876  
     length 3.9048  
     axis 0 0 0   XYZ
    dof ry rz
    limits (-20.0 10.0)
           (0.0 20.0)
  end
  begin
     id 18 
     name lhumerus
     direction 1 -4.48954e-011 -4.9675e-028   
     length 4.6851   
     axis 180 -30 -90   XYZ
    dof rx ry rz
    limits (-60.0 90.0)
           (-90.0 90.0)
           (-90.0 90.0)
  end
  begin
     id 19
     name lradius
     direction 1 -4.48992e-011 -1.03359e-026   
     length 3.39626   
     axis 180 -30 -90   XYZ
    dof rx
    limits (-10.0 170.0)
  end
  begin
     id 20
     name lwrist
     direction 1 -4.48906e-011 -1.67336e-026   
     length 1.69813   
     axis 9.90442e-015 90 90   XYZ
    dof ry
    limits (-180.0 0.0)
 end
  begin
     id 21 
     name lhand
     direction 1 -4.49006e-011 -3.34673e-026   
     length 0.486078   
     axis 2.1355e-014 90 90   XYZ
    dof rx rz
    limits (-90.0 90.0)
           (-45.0 45.0)
  end
  begin
     id 22 
     name lfingers
     direction 1 -4.48992e-011 -6.69345e-026   
     length 0.391889   
     axis 4.27099e-014 90 90   XYZ
    dof rx
    limits (0.0 90.0)
  end
  begin
     id 23
     name lthumb
     direction 0.707107 -6.34926e-011 0.707107   
     length 0.562676   
     axis -90 45 2.85299e-015   XYZ
    dof rx rz
    limits (-45.0 45.0)
           (-45.0 45.0)
  end
  begin
     id 24 
     name rclavicle
     direction -0.882459 0.414895 -0.221648   
     length 3.44646  
     axis 0 0 0   XYZ 
    dof ry rz
    limits (-10.0 20.0)
           (-20.0 0.0)
  end
  begin
     id 25 
     name rhumerus
     direction -1 -4.48962e-011 -2.37984e-027  
     length 5.55576   
     axis 180 30 90   XYZ
    dof rx ry rz
    limits (-90.0 60.0)
           (-90.0 90.0)
           (-90.0 90.0)
  end
  begin
     id 26 
     name rradius
     direction -1 -4.48982e-011 -6.86791e-027   
     length 3.32774   
     axis 180 30 90   XYZ
    dof rx
    limits (-10.0 170.0)
  end
  begin
     id 27 
     name rwrist
     direction -1 -4.48961e-011 -1.67336e-026   
     length 1.66387   
     axis 9.90442e-015 -90 -90   XYZ
    dof ry
    limits (-180.0 0.0)
  end
  begin
     id 28
     name rhand
     direction -1 -4.4897e-011 -3.34673e-026   
     length 0.507628   
     axis 2.1355e-014 -90 -90   XYZ
    dof rx rz
    limits (-90.0 90.0)
           (-45.0 45.0)
  end
  begin
     id 29
     name rfingers
     direction -1 -4.48854e-011 -6.69345e-026   
     length 0.409263   
     axis 4.27099e-014 -90 -90   XYZ
    dof rx
    limits (0.0 90.0)
  end
  begin
     id 30
     name rthumb
     direction -0.707107 -6.34913e-011 0.707107   
     length 0.587622   
     axis -90 -45 -2.85299e-015   XYZ
    dof rx rz
    limits (-45.0 45.0)
           (-45.0 45.0)
  end
:hierarchy
  begin
    root lhipjoint rhipjoint lowerback
    lhipjoint lfemur
    lfemur ltibia
    ltibia lfoot
    lfoot ltoes
    rhipjoint rfemur
    rfemur rtibia
    rtibia rfoot
    rfoot rtoes
    lowerback upperback
    upperback thorax
    thorax lowerneck lclavicle rclavicle
    lowerneck upperneck
    upperneck head
    lclavicle lhumerus
    lhumerus lradius
    lradius lwrist
    lwrist lhand lthumb
    lhand lfingers
    rclavicle rhumerus
    rhumerus rradius
    rradius rwrist
    rwrist rhand rthumb
    rhand rfingers
  end

#!OML:ASF E:\motion texture\Top Level 1\Subject 1\Session 1\male.ASF
:FULLY-SPECIFIED
:DEGREES
20
root 45.0756 17.719 4.76314 70.1627 -82.0789 -61.2875
lowerback -4.71833 0.690932 2.26205
upperback -2.38636 0.710126 3.57409
thorax 0.174919 0.315854 2.43872
lowerneck -20.922 -1.42255 -6.28359
upperneck 20.1747 -1.62247 6.4495
head 9.97585 -0.501381 3.08375
rclavicle 2.39287e-014 7.15625e-015
rhumerus -31.5882 -8.11722 -80.1228
rradius 31.6232
rwrist 13.5351
rhand -15.4675 -25.4239
rfingers 7.12502
rthumb 10.7138 -55.1307
lclavicle 2.39287e-014 7.15625e-015
lhumerus -30.5488 29.2551 79.2737
lradius 19.7578
lwrist -40.5332
lhand -12.8153 24.6293
lfingers 7.12502
lthumb 13.2712 54.1868
rfemur -12.9094 -0.862857 30.0834
rtibia 19.6829
rfoot -16.2771 -14.0538
rtoes 11.9623
lfemur -11.2862 -4.85827 -10.1977
ltibia 16.4442
lfoot -14.4514 5.58231
ltoes -10.9858
21
root 45.0359 17.6727 4.74068 72.1127 -81.2745 -63.7961
lowerback -3.83116 0.663998 3.28689
upperback -2.08172 0.665208 3.81187
thorax 0.0023925 0.284662 2.09881
lowerneck -21.0024 -1.2622 -6.09089
upperneck 19.6919 -1.31775 6.01496
head 9.79249 -0.389054 2.93158
rclavicle 1.13059e-014 -4.01545e-014
rhumerus -30.5131 -5.47441 -81.3461
rradius 32.9823
rwrist 13.2224
rhand -14.7494 -25.1099
rfingers 7.12502
rthumb 11.4065 -54.7796
lclavicle 1.13059e-014 -4.01545e-014
lhumerus -29.8504 24.3883 82.1276
lradius 22.4465
lwrist -34.6255
lhand -12.3803 24.6696
lfingers 7.12502
lthumb 13.6905 54.1993
rfemur -12.4118 -1.23015 31.1599
rtibia 20.1015
rfoot -15.7451 -13.5716
rtoes 12.6655
lfemur -14.0669 -3.23344 -9.11499
ltibia 22.5754
lfoot -14.9365 4.88158
ltoes -10.7881
22
root 45.006 17.6636 4.72892 72.7792 -81.2037 -64.4445
lowerback -3.82487 0.674006 3.41242
upperback -2.05296 0.672402 3.82682
thorax 0.0295551 0.28729 2.04435
lowerneck -20.9999 -1.21956 -6.10002
upperneck 19.6441 -1.25552 6.02565
head 9.77085 -0.35915 2.9449
rclavicle 8.79622e-015 -6.55989e-015
rhumerus -30.2498 -4.61557 -81.7898
rradius 33.635
rwrist 13.1811
rhand -14.8132 -25.0566
rfingers 7.12502
rthumb 11.3449 -54.7297
lclavicle 8.79622e-015 -6.55989e-015
lhumerus -29.3586 23.2483 82.9818
lradius 23.0807
lwrist -33.4464
lhand -12.2685 24.7327
lfingers 7.12502
lthumb 13.7982 54.2551
rfemur -12.3596 -1.26054 31.327
rtibia 20.1707
rfoot -15.877 -13.4165
rtoes 12.613
lfemur -14.5198 -2.98448 -8.95498
ltibia 23.5049
lfoot -15.1371 4.83992
ltoes -10.5011
23
root 44.9753 17.6544 4.71705 73.4445 -81.1273 -65.1013
lowerback -3.80641 0.684781 3.54446
upperback -2.02016 0.680981 3.84202
thorax 0.0541544 0.290635 1.98649
lowerneck -20.9947 -1.17791 -6.10613
upperneck 19.5879 -1.19348 6.02864
head 9.74573 -0.329935 2.95473
rclavicle -2.60905e-016 -9.16397e-014
rhumerus -29.9794 -3.75448 -82.2212
rradius 34.2984
rwrist 13.1605
rhand -14.8806 -24.995
rfingers 7.12502
rthumb 11.28 -54.6717
lclavicle -2.60905e-016 -9.16397e-014
lhumerus -28.897 22.1246 83.7955
lradius 23.7433
lwrist -32.2858
lhand -12.1569 24.8019
lfingers 7.12502
lthumb 13.9058 54.3169
rfemur -12.2901 -1.2907 31.4996
rtibia 20.2328
rfoot -16.0028 -13.2605
rtoes 12.58
lfemur -14.9991 -2.72431 -8.79089
ltibia 24.4857
lfoot -15.3308 4.79161
ltoes -10.2392
24
root 44.9438 17.6451 4.70512 74.108 -81.045 -65.764
lowerback -3.77769 0.695914 3.68323
upperback -1.98359 0.69031 3.85756
thorax 0.0769915 0.294382 1.92515
lowerneck -20.9892 -1.1363 -6.10979
upperneck 19.5247 -1.13055 6.02584
head 9.71796 -0.300701 2.96205
rclavicle -4.27387e-015 -4.96962e-015
rhumerus -29.7012 -2.89406 -82.6391
rradius 34.972
rwrist 13.1685
rhand -14.9483 -24.9333
rfingers 7.12502
rthumb 11.2146 -54.6135
lclavicle -4.27387e-015 -4.96962e-015
lhumerus -28.4639 21.0136 84.5713
lradius 24.4352
lwrist -31.1376
lhand -12.0421 24.8715
lfingers 7.12502
lthumb 14.0165 54.3789
rfemur -12.2055 -1.32073 31.6781
rtibia 20.2872
rfoot -16.1214 -13.1032
rtoes 12.5771
lfemur -15.507 -2.45359 -8.62241
ltibia 25.5138
lfoot -15.5149 4.73972
ltoes -10.0022
25
root 44.9115 17.6359 4.69318 74.7792 -80.9582 -66.4409
lowerback -3.73863 0.708086 3.82791
upperback -1.94419 0.701427 3.87277
thorax 0.0970468 0.299042 1.86017
lowerneck -20.9838 -1.09502 -6.11222
upperneck 19.4564 -1.06717 6.01871
head 9.68838 -0.271587 2.96757
rclavicle 1.83876e-015 2.10712e-014
rhumerus -29.4161 -2.03517 -83.0432
rradius 35.6556
rwrist 13.2017
rhand -15.0298 -24.8543
rfingers 7.12502
rthumb 11.136 -54.5388
lclavicle 1.83876e-015 2.10712e-014
lhumerus -28.0583 19.9224 85.3079
lradius 25.1545
lwrist -30.009
lhand -11.9254 24.9473
lfingers 7.12502
lthumb 14.1288 54.4469
rfemur -12.1074 -1.34838 31.8613
rtibia 20.3348
rfoot -16.2325 -12.9461
rtoes 12.593
lfemur -16.0434 -2.1726 -8.45069
ltibia 26.5835
lfoot -15.6905 4.68504
ltoes -9.79221
26
root 44.8783 17.6269 4.68123 75.4473 -80.8674 -67.1202
lowerback -3.69128 0.72104 3.97711
upperback -1.90181 0.713944 3.8874
thorax 0.11565 0.304453 1.79209
lowerneck -20.9663 -1.0564 -6.0964
upperneck 19.3677 -1.00535 5.97947
head 9.64938 -0.245496 2.95791
rclavicle 4.98204e-015 2.08724e-014
rhumerus -29.1222 -1.1795 -83.4331
rradius 36.3493
rwrist 13.2564
rhand -15.1138 -24.7736
rfingers 7.12502
rthumb 11.055 -54.4625
lclavicle 4.98204e-015 2.08724e-014
lhumerus -27.6772 18.8499 86.0075
lradius 25.8995
lwrist -28.8994
lhand -11.8069 25.0213
lfingers 7.12502
lthumb 14.243 54.5129
rfemur -11.9957 -1.37261 32.0482
rtibia 20.3735
rfoot -16.3362 -12.7915
rtoes 12.6302
lfemur -16.608 -1.88263 -8.27683
ltibia 27.6888
lfoot -15.8572 4.6286
ltoes -9.60722
27
root 44.8444 17.6179 4.66937 76.1202 -80.7742 -67.8076
lowerback -3.63625 0.735734 4.13073
upperback -1.85806 0.729236 3.9003
thorax 0.131483 0.311277 1.7198
lowerneck -20.9501 -1.02001 -6.08427
upperneck 19.2759 -0.945771 5.94215
head 9.60977 -0.220409 2.94917
rclavicle -7.1314e-015 2.90226e-014
rhumerus -28.8206 -0.329902 -83.8081
rradius 37.0519
rwrist 13.3366
rhand -15.1969 -24.6931
rfingers 7.12502
rthumb 10.9749 -54.3862
lclavicle -7.1314e-015 2.90226e-014
lhumerus -27.3199 17.7987 86.6699
lradius 26.6681
lwrist -27.8129
lhand -11.6871 25.1036
lfingers 7.12502
lthumb 14.3585 54.587
rfemur -11.8731 -1.39482 32.2369
rtibia 20.4034
rfoot -16.4321 -12.6383
rtoes 12.6875
lfemur -17.2025 -1.5842 -8.10277
ltibia 28.8237
lfoot -16.0133 4.57354
ltoes -9.45032
28
root 44.8095 17.6092 4.6575 76.7798 -80.6787 -68.4867
lowerback -3.57405 0.751196 4.28573
upperback -1.81196 0.746089 3.91157
thorax 0.145847 0.318963 1.64506
lowerneck -20.9341 -0.983124 -6.07148
upperneck 19.182 -0.88611 5.90644
head 9.56952 -0.194995 2.94086
rclavicle -6.58474e-015 -3.43897e-014
rhumerus -28.511 0.511458 -84.1676
rradius 37.7625
rwrist 13.4373
rhand -15.2847 -24.6061
rfingers 7.12502
rthumb 10.8902 -54.3037
lclavicle -6.58474e-015 -3.43897e-014
lhumerus -26.9845 16.77 87.2965
lradius 27.4588
lwrist -26.7518
lhand -11.5673 25.1863
lfingers 7.12502
lthumb 14.474 54.6615
rfemur -11.7351 -1.41073 32.427
rtibia 20.4218
rfoot -16.5214 -12.4922
rtoes 12.7682
lfemur -17.8213 -1.28099 -7.92867
ltibia 29.9781
lfoot -16.1567 4.52124
ltoes -9.32317
